<svg width="361" height="304" viewBox="0 0 361 304" fill="none" xmlns="http://www.w3.org/2000/svg">
<g clip-path="url(#clip0_15921_11)">
<path d="M7.05786 0C3.51331 0 0.640015 2.87903 0.640015 6.43046V240.821C0.640015 244.372 3.51331 247.251 7.05786 247.251H353.942C357.487 247.251 360.36 244.372 360.36 240.821V6.43046C360.36 2.87903 357.487 0 353.942 0H7.05786Z" fill="url(#paint0_linear_15921_11)"/>
<path d="M192.091 66.3851C192.091 69.1751 191.092 71.78 189.101 74.1909C186.698 77.0572 183.792 78.7134 180.641 78.4521C180.601 78.1175 180.577 77.7652 180.577 77.3949C180.577 74.7168 181.72 71.8504 183.749 69.5069C184.762 68.3203 186.05 67.3338 187.613 66.5467C189.172 65.7713 190.646 65.3425 192.033 65.2692C192.051 65.4351 192.065 65.6009 192.074 65.7664C192.085 65.9733 192.091 66.1797 192.091 66.3851Z" fill="url(#paint1_linear_15921_11)"/>
<path d="M202.639 108.742C201.812 110.691 200.834 112.485 199.7 114.134C198.155 116.383 196.889 117.939 195.914 118.803C194.402 120.222 192.782 120.949 191.048 120.99C189.803 120.99 188.301 120.628 186.553 119.895C184.799 119.165 183.188 118.803 181.714 118.803C180.169 118.803 178.511 119.165 176.738 119.895C174.962 120.628 173.532 121.011 172.438 121.049C170.775 121.121 169.117 120.374 167.462 118.803C166.406 117.863 165.085 116.252 163.502 113.969C161.804 111.531 160.408 108.704 159.315 105.481C158.143 102 157.556 98.6288 157.556 95.3651C157.556 91.6267 158.348 88.4023 159.934 85.7004C161.18 83.5299 162.838 81.818 164.913 80.5612C166.988 79.3043 169.23 78.6639 171.644 78.6229C172.965 78.6229 174.698 79.0399 176.85 79.8593C178.997 80.6816 180.376 81.0985 180.98 81.0985C181.432 81.0985 182.963 80.6111 185.559 79.6389C188.014 78.7376 190.086 78.3643 191.784 78.5113C196.383 78.89 199.838 80.7401 202.136 84.0735C198.023 86.6167 195.988 90.1788 196.029 94.7484C196.066 98.3079 197.331 101.27 199.818 103.622C200.945 104.713 202.204 105.557 203.604 106.156C203.301 107.055 202.98 107.916 202.639 108.742Z" fill="url(#paint2_linear_15921_11)"/>
<path fill-rule="evenodd" clip-rule="evenodd" d="M341.588 233.712C344.227 233.712 346.366 231.568 346.366 228.924C346.366 226.28 344.227 224.137 341.588 224.137C338.949 224.137 336.81 226.28 336.81 228.924C336.81 231.568 338.949 233.712 341.588 233.712ZM341.588 234.229C344.512 234.229 346.883 231.854 346.883 228.924C346.883 225.994 344.512 223.619 341.588 223.619C338.664 223.619 336.293 225.994 336.293 228.924C336.293 231.854 338.664 234.229 341.588 234.229Z" fill="#B97E35"/>
<path d="M341.589 229.029C341.769 229.029 341.888 228.906 341.888 228.72V226.504C341.888 226.318 341.769 226.191 341.589 226.191C341.409 226.191 341.287 226.318 341.287 226.504V228.72C341.287 228.906 341.409 229.029 341.589 229.029ZM341.589 231.657C343.083 231.657 344.315 230.458 344.315 229.003C344.315 228.237 343.972 227.566 343.487 227.116C343.196 226.833 342.775 227.202 343.077 227.507C343.481 227.884 343.728 228.412 343.731 229.003C343.734 230.159 342.775 231.089 341.589 231.089C340.401 231.089 339.448 230.159 339.448 229.003C339.45 228.41 339.697 227.881 340.101 227.504C340.403 227.199 339.98 226.833 339.689 227.113C339.204 227.563 338.86 228.237 338.86 229.003C338.86 230.458 340.093 231.657 341.589 231.657Z" fill="#FBE9BA"/>
<rect x="137.821" y="299.177" width="85.3573" height="1.2861" fill="#8C7447"/>
<path d="M137.821 300.463H223.179V303.357C223.179 303.712 222.891 304 222.537 304H138.463C138.109 304 137.821 303.712 137.821 303.357V300.463Z" fill="#E2C999"/>
<path fill-rule="evenodd" clip-rule="evenodd" d="M139.747 181.178C138.683 181.178 137.821 182.042 137.821 183.107V299.177H223.179V183.107C223.179 182.042 222.317 181.178 221.253 181.178H139.747ZM180.58 214.617C175.662 214.617 171.675 218.611 171.675 223.539V238.329C171.675 243.257 175.662 247.251 180.58 247.251C185.498 247.251 189.485 243.257 189.485 238.329V223.539C189.485 218.611 185.498 214.617 180.58 214.617Z" fill="url(#paint3_linear_15921_11)"/>
<ellipse cx="180.42" cy="231.095" rx="5.21451" ry="5.22476" fill="#535962"/>
<ellipse cx="180.42" cy="231.095" rx="3.61004" ry="3.61715" fill="#121417"/>
<ellipse cx="180.42" cy="231.095" rx="2.96825" ry="2.97408" fill="#9A9B9D"/>
<ellipse cx="180.42" cy="231.095" rx="2.00559" ry="2.00949" fill="#121417"/>
<path d="M53.9081 227.156C53.9081 226.446 54.4828 225.87 55.1916 225.87C55.9005 225.87 56.4752 226.446 56.4752 227.156V231.014C56.4752 231.725 55.9005 232.3 55.1916 232.3C54.4828 232.3 53.9081 231.725 53.9081 231.014V227.156Z" fill="#121417"/>
<rect x="55.0312" y="227.156" width="0.320881" height="3.85826" rx="0.16044" fill="#D3933B"/>
<path d="M63.6953 227.156C63.6953 226.446 64.27 225.87 64.9789 225.87C65.6878 225.87 66.2624 226.446 66.2624 227.156V231.014C66.2624 231.725 65.6878 232.3 64.9789 232.3C64.27 232.3 63.6953 231.725 63.6953 231.014V227.156Z" fill="#121417"/>
<rect x="64.8184" y="227.156" width="0.3209" height="3.85826" rx="0.16045" fill="#D3933B"/>
<path d="M73.4825 227.156C73.4825 226.446 74.0572 225.87 74.7661 225.87C75.475 225.87 76.0497 226.446 76.0497 227.156V231.014C76.0497 231.725 75.475 232.3 74.7661 232.3C74.0572 232.3 73.4825 231.725 73.4825 231.014V227.156Z" fill="#121417"/>
<rect x="74.6057" y="227.156" width="0.320908" height="3.85826" rx="0.160454" fill="#D3933B"/>
<path d="M83.2697 227.156C83.2697 226.446 83.8443 225.87 84.5532 225.87C85.2621 225.87 85.8368 226.446 85.8368 227.156V231.014C85.8368 231.725 85.2621 232.3 84.5532 232.3C83.8443 232.3 83.2697 231.725 83.2697 231.014V227.156Z" fill="#121417"/>
<rect x="84.3928" y="227.156" width="0.320885" height="3.85826" rx="0.160442" fill="#D3933B"/>
<path d="M74.4929 223.898L74.5802 223.934C74.7753 223.759 75.0303 223.619 75.3452 223.512L75.412 223.348C75.2956 223.351 75.1878 223.362 75.0885 223.379C74.9927 223.392 74.9088 223.41 74.8369 223.43L75.566 221.681L74.3081 222.283L74.7291 220.94L74.5135 220.889L73.959 222.669L75.1501 222.108L74.6418 223.353C74.5768 223.223 74.4639 223.068 74.303 222.89L74.2362 223.055C74.3868 223.353 74.4724 223.634 74.4929 223.898Z" fill="#FBE9BA"/>
<path d="M84.2802 223.898L84.3674 223.934C84.5625 223.759 84.8175 223.619 85.1324 223.512L85.1992 223.348C85.0828 223.351 84.975 223.362 84.8757 223.379C84.7799 223.392 84.696 223.41 84.6242 223.43L85.3532 221.681L84.0953 222.283L84.5163 220.94L84.3007 220.889L83.7462 222.669L84.9373 222.108L84.429 223.353C84.364 223.223 84.2511 223.068 84.0902 222.89L84.0234 223.055C84.174 223.353 84.2596 223.634 84.2802 223.898Z" fill="#FBE9BA"/>
</g>
<defs>
<linearGradient id="paint0_linear_15921_11" x1="180.5" y1="0" x2="180.5" y2="247.251" gradientUnits="userSpaceOnUse">
<stop stop-color="#EEB055"/>
<stop offset="1" stop-color="#D08F38"/>
</linearGradient>
<linearGradient id="paint1_linear_15921_11" x1="180.58" y1="65.2692" x2="180.58" y2="121.053" gradientUnits="userSpaceOnUse">
<stop stop-color="#FBE9BA"/>
<stop offset="1" stop-color="#E7C885"/>
</linearGradient>
<linearGradient id="paint2_linear_15921_11" x1="180.58" y1="65.2692" x2="180.58" y2="121.053" gradientUnits="userSpaceOnUse">
<stop stop-color="#FBE9BA"/>
<stop offset="1" stop-color="#E7C885"/>
</linearGradient>
<linearGradient id="paint3_linear_15921_11" x1="180.5" y1="181.178" x2="180.5" y2="299.177" gradientUnits="userSpaceOnUse">
<stop stop-color="#EFD6A6"/>
<stop offset="1" stop-color="#CFB686"/>
</linearGradient>
<clipPath id="clip0_15921_11">
<rect width="359.72" height="304" fill="white" transform="translate(0.640015)"/>
</clipPath>
</defs>
</svg>
